<svg width="24" height="24" viewBox="0 0 24 24" fill="none" xmlns="http://www.w3.org/2000/svg">
<g clip-path="url(#clip0_7460_18600)">
<path fill-rule="evenodd" clip-rule="evenodd" d="M22.4265 14.6767C22.6288 13.8476 23.6194 14.0902 23.4981 14.798V14.799C22.2242 20.0362 17.5124 23.919 11.9108 23.919C5.3386 23.919 0 18.5804 0 12.0081C0 5.43592 5.3386 0.0973206 11.9108 0.0973206C17.5327 0.0973206 22.2446 4 23.4981 9.21732C23.5995 10.0061 22.5682 10.026 22.4265 9.33859C21.2535 4.64713 16.9865 1.16891 11.9312 1.16891C5.94599 1.16891 1.09248 6.02242 1.09248 12.0076C1.09248 17.9929 5.94548 22.8464 11.9312 22.8464C16.987 22.8464 21.2336 19.3681 22.4265 14.6767ZM22.7496 11.6229L22.7522 11.6194C22.6742 11.7287 22.6283 11.8625 22.6283 12.0071C22.6283 12.2216 22.7292 12.4122 22.8861 12.5343C22.9899 12.6198 23.1321 12.6746 23.2958 12.6746C23.6647 12.6746 23.9633 12.376 23.9633 12.0071C23.9633 11.7718 23.8416 11.5651 23.6579 11.4463C23.556 11.3783 23.4337 11.3396 23.2958 11.3396C23.0527 11.3396 22.8504 11.4614 22.7496 11.6229ZM6.91618 12.0071C6.91618 9.21681 9.18064 6.95184 11.9715 6.95184L11.973 6.95286C14.7633 6.95286 17.0283 9.23821 17.0283 12.0285C17.0283 14.8188 14.7638 17.0838 11.973 17.0838C11.4675 17.0838 10.9819 17.0232 10.5371 16.8815C10.719 16.5783 10.9417 16.1738 11.0425 15.7895C11.1032 15.5674 11.4064 14.3944 11.4064 14.3944C11.5883 14.718 12.0938 15.0211 12.64 15.0211C14.2782 15.0211 15.3702 13.545 15.3702 11.5633C15.3702 10.0667 14.0963 8.67159 12.1753 8.67159C9.76866 8.67159 8.55541 10.3903 8.55541 11.8262C8.55541 12.6955 8.87898 13.4639 9.58675 13.7473C9.68764 13.8079 9.78904 13.7473 9.8293 13.626C9.83551 13.6007 9.84571 13.5615 9.85742 13.5165C9.88315 13.4176 9.91618 13.2907 9.93019 13.2214C9.95006 13.0996 9.95006 13.039 9.84917 12.9381C9.64688 12.695 9.5256 12.3918 9.5256 11.947C9.5256 10.6731 10.4759 9.5205 12.0127 9.5205C13.3676 9.5205 14.1157 10.3495 14.1157 11.4619C14.1157 12.9177 13.4685 14.1513 12.5182 14.1513C11.9924 14.1513 11.6082 13.7264 11.7294 13.1806C11.7845 12.9292 11.8639 12.6717 11.9404 12.4235C12.0609 12.0329 12.1743 11.6654 12.1743 11.3809C12.1743 10.9564 11.9521 10.6125 11.4869 10.6125C10.9406 10.6125 10.5162 11.1786 10.5162 11.9266C10.5162 12.4117 10.6777 12.7353 10.6777 12.7353C10.6777 12.7353 10.1315 15.0808 10.0306 15.4853C9.94955 15.8695 9.92917 16.294 9.94955 16.638C8.16968 15.8492 6.91618 14.0698 6.91618 12.0071Z" fill="#7F7F7F"/>
</g>
<defs>
<clipPath id="clip0_7460_18600">
<rect width="24" height="24" fill="white"/>
</clipPath>
</defs>
</svg>
