<svg width="24" height="24" viewBox="0 0 24 24" fill="none" xmlns="http://www.w3.org/2000/svg">
<g clip-path="url(#clip0_7460_18602)">
<path fill-rule="evenodd" clip-rule="evenodd" d="M22.4265 14.6767C22.6288 13.8476 23.6194 14.0902 23.4981 14.798V14.799C22.2242 20.0362 17.5124 23.919 11.9108 23.919C5.3386 23.919 0 18.5804 0 12.0081C0 5.43592 5.3386 0.0973206 11.9108 0.0973206C17.5327 0.0973206 22.2446 4 23.4981 9.21732C23.5995 10.0061 22.5682 10.026 22.4265 9.33859C21.2535 4.64713 16.9865 1.16891 11.9312 1.16891C5.94599 1.16891 1.09248 6.02242 1.09248 12.0076C1.09248 17.9929 5.94548 22.8464 11.9312 22.8464C16.987 22.8464 21.2336 19.3681 22.4265 14.6767ZM22.7496 11.6229L22.7522 11.6194C22.6742 11.7286 22.6283 11.8625 22.6283 12.0071C22.6283 12.2215 22.7292 12.4122 22.8861 12.5343C22.9899 12.6198 23.1321 12.6746 23.2958 12.6746C23.6647 12.6746 23.9633 12.376 23.9633 12.0071C23.9633 11.7718 23.8416 11.5651 23.6579 11.4462C23.5559 11.3783 23.4337 11.3396 23.2958 11.3396C23.0527 11.3396 22.8504 11.4614 22.7496 11.6229ZM15.9348 9.76254C15.9552 9.76254 15.9552 9.78242 15.9552 9.8028H15.9557C15.9667 9.81385 15.9716 9.83137 15.9773 9.85166C15.9818 9.86786 15.9869 9.88582 15.9959 9.90369C16.0566 10.2879 16.1574 11.0762 16.1574 12.0066C16.1376 12.9366 16.0566 13.7253 15.9959 14.1095C15.9959 14.1297 15.9908 14.1448 15.9857 14.16C15.9806 14.1752 15.9755 14.1903 15.9755 14.2104C15.962 14.2237 15.9552 14.2371 15.9552 14.2507C15.8339 14.5946 15.5307 14.8372 15.1465 14.8372H15.2071C15.2071 14.8372 13.6907 15.0797 11.6887 15.0797C9.68662 15.0599 8.17019 14.8372 8.17019 14.8372H8.23083C7.84662 14.8372 7.54344 14.5946 7.42216 14.2507C7.40178 14.2507 7.40178 14.2308 7.40178 14.2104C7.40178 14.1903 7.39669 14.1752 7.39159 14.16C7.38649 14.1448 7.3814 14.1297 7.3814 14.1095C7.32076 13.7253 7.21987 12.9366 7.21987 12.0066C7.23974 11.0767 7.32076 10.2879 7.3814 9.90369C7.3814 9.88356 7.38649 9.8684 7.39159 9.85324C7.39669 9.83808 7.40178 9.82292 7.40178 9.8028C7.42216 9.8028 7.42216 9.78292 7.42216 9.76254C7.54344 9.41859 7.84662 9.17605 8.23083 9.17605H8.17019C8.17019 9.17605 9.68662 8.9335 11.6887 8.9335C13.6907 8.95337 15.2071 9.17605 15.2071 9.17605H15.1261C15.5103 9.17605 15.8135 9.41859 15.9348 9.76254ZM11.2031 13.5037L13.0028 12.189H13.0033C13.0639 12.1488 13.0843 12.0881 13.0843 12.0275C13.0843 11.9465 13.0639 11.8859 13.0033 11.8456L11.2036 10.531C11.1424 10.4902 11.0619 10.4703 10.9809 10.5106C10.8999 10.5513 10.8596 10.6318 10.8596 10.7129V13.3213C10.8596 13.4023 10.8999 13.4833 10.9809 13.5236C11.0211 13.5439 11.0415 13.5439 11.0818 13.5439C11.122 13.5439 11.1628 13.5241 11.2031 13.5037Z" fill="#7F7F7F"/>
</g>
<defs>
<clipPath id="clip0_7460_18602">
<rect width="24" height="24" fill="white"/>
</clipPath>
</defs>
</svg>
