<svg width="24" height="24" viewBox="0 0 24 24" fill="none" xmlns="http://www.w3.org/2000/svg">
<g clip-path="url(#clip0_7460_18596)">
<path fill-rule="evenodd" clip-rule="evenodd" d="M23.4981 14.798C23.6194 14.0902 22.6288 13.8476 22.4265 14.6767C21.2336 19.3681 16.987 22.8464 11.9312 22.8464C5.94548 22.8464 1.09248 17.9929 1.09248 12.0076C1.09248 6.02242 5.94599 1.16891 11.9312 1.16891C16.9865 1.16891 21.2535 4.64713 22.4265 9.33859C22.5682 10.026 23.5995 10.0061 23.4981 9.21732C22.2446 4 17.5327 0.0973206 11.9108 0.0973206C5.3386 0.0973206 0 5.43592 0 12.0081C0 18.5804 5.3386 23.919 11.9108 23.919C17.5124 23.919 22.2242 20.0362 23.4981 14.799V14.798ZM23.2958 11.3396C23.6642 11.3396 23.9633 11.6382 23.9633 12.0071C23.9633 12.376 23.6647 12.6746 23.2958 12.6746C22.9269 12.6746 22.6283 12.376 22.6283 12.0071C22.6283 11.6382 22.9269 11.3396 23.2958 11.3396ZM11.2382 12.4112V10.718L11.2367 10.7174C10.8561 10.6492 10.4841 10.6762 10.1167 10.7608C8.43211 11.1485 7.43185 12.7893 7.75338 14.3985C8.03822 15.8232 9.24128 16.8071 10.5722 16.8953C11.469 16.9544 12.2538 16.6864 12.9131 16.0805C13.5975 15.4522 13.9185 14.6573 13.9215 13.733C13.924 12.9873 13.9235 12.2416 13.923 11.4959C13.9228 11.1853 13.9226 10.8747 13.9226 10.5641V10.398C14.6359 10.8887 15.4043 11.1225 16.2476 11.1307V9.43949C15.602 9.43184 15.0507 9.20764 14.5997 8.75719C14.1462 8.3042 13.9241 7.74777 13.9164 7.11133H12.1992V7.28051C12.1992 7.90059 12.1986 8.52068 12.1979 9.14075C12.1962 10.6908 12.1946 12.2408 12.2033 13.7906C12.2084 14.6298 11.4375 15.4166 10.4418 15.1862C9.82472 15.0436 9.31771 14.4657 9.36 13.6881C9.39313 13.0777 9.90676 12.4948 10.5412 12.4102C10.6979 12.3892 10.8586 12.3965 11.0191 12.4039C11.0923 12.4072 11.1655 12.4106 11.2382 12.4112Z" fill="#7F7F7F"/>
</g>
<defs>
<clipPath id="clip0_7460_18596">
<rect width="24" height="24" fill="white"/>
</clipPath>
</defs>
</svg>
