<?xml version="1.0" encoding="UTF-8"?>
<svg id="Laag_2" data-name="Laag 2" xmlns="http://www.w3.org/2000/svg" viewBox="0 0 91.87 91.87">
  <defs>
    <style>
      .cls-1 {
        fill: none;
        stroke: #fff;
        stroke-linecap: round;
        stroke-miterlimit: 10;
        stroke-width: 3px;
      }
    </style>
  </defs>
  <g id="Laag_2-2" data-name="Laag 2">
    <g>
      <circle class="cls-1" cx="45.93" cy="45.93" r="44.43"/>
      <circle class="cls-1" cx="45.93" cy="37.5" r="12.83" transform="translate(-3.47 4.71) rotate(-5.65)"/>
      <path class="cls-1" d="M19.23,81.45c-.19-1.63-.27-4.2.56-7.17.65-2.31,1.58-3.91,2.13-4.82.32-.54,1.86-3.08,4.82-5.67,1.75-1.54,3.56-3.12,6.38-3.97,1.17-.35,2.1-.45,3.97-.57,6.34-.38,11.98-.21,17.29,0,2.55.1,2.76.03,3.4.14,4.98.87,8.2,4.49,9.64,6.09,2.19,2.45,3.33,4.82,3.83,5.95,1.75,4.01,1.91,7.62,1.85,9.65"/>
    </g>
  </g>
</svg>