<?xml version="1.0" encoding="UTF-8"?>
<svg id="Laag_2" data-name="Laag 2" xmlns="http://www.w3.org/2000/svg" viewBox="0 0 246.36 245.65">
  <defs>
    <style>
      .cls-1 {
        fill: #7f7f7f;
      }
    </style>
  </defs>
  <g id="Laag_2-2" data-name="Laag 2">
    <g>
      <path class="cls-1" d="M131.98,78.61c-12.89,0-21.21,8.54-21.21,21.77v7.01h-8.28l-.07,15.77h8.36s-.02,43.89-.02,43.89h18.66l.02-43.84,12.21-.08,1.77-15.77-13.98-.07v-5.38c0-4.09.99-6.81,6.32-6.81l7.66-.05.05-16.44"/>
      <path class="cls-1" d="M122.83,245.65C55.1,245.65,0,190.55,0,122.83S55.1,0,122.83,0c28.1,0,54.54,9.23,76.47,26.7,21.28,16.95,36.51,40.76,42.9,67.05.72,2.95-1.09,5.92-4.04,6.63-2.95.72-5.91-1.09-6.63-4.04-12.2-50.26-56.9-85.37-108.69-85.37C61.15,10.98,10.98,61.15,10.98,122.83s50.17,111.85,111.85,111.85c51.97,0,96.7-35.25,108.78-85.72.71-2.95,3.67-4.77,6.62-4.06,2.95.71,4.77,3.67,4.06,6.62-6.31,26.38-21.53,50.29-42.84,67.32-21.96,17.55-48.45,26.82-76.62,26.82Z"/>
      <circle class="cls-1" cx="239.53" cy="122.83" r="6.83"/>
    </g>
  </g>
</svg>