<?xml version="1.0" encoding="UTF-8"?>
<svg id="Laag_2" data-name="Laag 2" xmlns="http://www.w3.org/2000/svg" viewBox="0 0 246.36 245.65">
  <defs>
    <style>
      .cls-1 {
        fill: #7f7f7f;
      }
    </style>
  </defs>
  <g id="Laag_2-2" data-name="Laag 2">
    <g>
      <path class="cls-1" d="M122.83,245.65C55.1,245.65,0,190.55,0,122.83S55.1,0,122.83,0c28.1,0,54.54,9.23,76.47,26.7,21.28,16.95,36.51,40.76,42.89,67.05.72,2.95-1.09,5.92-4.04,6.63-2.94.72-5.92-1.09-6.63-4.04-12.2-50.26-56.9-85.37-108.7-85.37C61.15,10.98,10.98,61.15,10.98,122.83s50.17,111.85,111.85,111.85c51.97,0,96.7-35.25,108.78-85.72.71-2.95,3.67-4.77,6.62-4.06,2.95.71,4.77,3.67,4.06,6.62-6.31,26.38-21.53,50.29-42.84,67.32-21.96,17.55-48.45,26.82-76.62,26.82Z"/>
      <circle class="cls-1" cx="239.53" cy="122.83" r="6.83"/>
      <path class="cls-1" d="M148.14,78.79h-53.99c-9.39,0-17.02,7.63-17.02,17.02v54.02c0,9.39,7.63,17.02,17.02,17.02h53.99c9.39,0,17.02-7.63,17.02-17.02v-54.06c-.03-9.35-7.67-16.99-17.02-16.99ZM153.03,88.94h1.96v14.92l-14.89.03-.03-14.92,12.96-.03ZM108.56,113.77c2.82-3.89,7.39-6.46,12.55-6.46s9.73,2.54,12.55,6.46c1.86,2.54,2.92,5.67,2.92,9.04,0,8.53-6.95,15.51-15.51,15.51s-15.44-6.98-15.44-15.51c0-3.37,1.1-6.5,2.92-9.04ZM156.57,149.8c0,4.64-3.78,8.42-8.42,8.42h-53.99c-4.64,0-8.42-3.78-8.42-8.42v-36.04h13.14c-1.13,2.79-1.79,5.85-1.79,9.04,0,13.27,10.8,24.07,24.07,24.07s24.07-10.8,24.07-24.07c0-3.2-.65-6.26-1.79-9.04h13.14v36.04Z"/>
    </g>
  </g>
</svg>