<?xml version="1.0" encoding="UTF-8"?>
<svg id="Laag_2" data-name="Laag 2" xmlns="http://www.w3.org/2000/svg" viewBox="0 0 246.36 245.65">
  <defs>
    <style>
      .cls-1 {
        fill: #7f7f7f;
      }
    </style>
  </defs>
  <g id="Laag_2-2" data-name="Laag 2">
    <g>
      <path class="cls-1" d="M122.83,245.65C55.1,245.65,0,190.55,0,122.83S55.1,0,122.83,0c28.1,0,54.54,9.23,76.47,26.7,21.28,16.95,36.51,40.76,42.89,67.05.72,2.95-1.09,5.92-4.04,6.63-2.94.72-5.92-1.09-6.63-4.04-12.2-50.26-56.9-85.37-108.69-85.37C61.15,10.98,10.98,61.15,10.98,122.83s50.17,111.85,111.85,111.85c51.97,0,96.7-35.25,108.78-85.72.71-2.95,3.68-4.76,6.62-4.06,2.95.71,4.77,3.67,4.06,6.62-6.31,26.38-21.53,50.29-42.84,67.32-21.96,17.55-48.45,26.82-76.62,26.82Z"/>
      <circle class="cls-1" cx="239.53" cy="122.83" r="6.83"/>
      <path class="cls-1" d="M149.61,78.35c-7.91-4.62-16.56-6.93-25.93-6.93s-18.02,2.31-25.93,6.93c-7.91,4.62-14.18,10.89-18.8,18.8-4.62,7.92-6.93,16.56-6.93,25.93,0,10.45,2.85,19.93,8.54,28.45,5.69,8.52,13.16,14.82,22.4,18.9-.18-4.8.11-8.77.87-11.9l6.66-28.12c-1.12-2.2-1.68-4.93-1.68-8.21,0-3.81.96-7,2.89-9.55,1.93-2.56,4.28-3.84,7.06-3.84,2.24,0,3.97.74,5.18,2.22,1.21,1.48,1.82,3.34,1.82,5.58,0,1.39-.26,3.08-.77,5.08-.52,2-1.19,4.3-2.02,6.93-.83,2.62-1.42,4.72-1.78,6.29-.63,2.73-.11,5.08,1.55,7.03,1.66,1.95,3.86,2.93,6.59,2.93,4.8,0,8.73-2.67,11.81-8,3.07-5.34,4.61-11.82,4.61-19.44,0-5.87-1.89-10.65-5.68-14.33-3.79-3.68-9.07-5.52-15.84-5.52-7.58,0-13.71,2.43-18.4,7.3-4.69,4.87-7.03,10.68-7.03,17.45,0,4.04,1.14,7.42,3.43,10.16.76.9,1.01,1.86.74,2.89-.09.27-.27.94-.54,2.02-.27,1.08-.45,1.77-.54,2.09-.36,1.44-1.21,1.88-2.56,1.35-3.45-1.43-6.08-3.92-7.87-7.47-1.79-3.54-2.69-7.64-2.69-12.31,0-3,.48-6.01,1.45-9.01.96-3,2.47-5.91,4.51-8.71,2.04-2.8,4.48-5.28,7.33-7.43,2.85-2.15,6.31-3.88,10.39-5.18,4.08-1.3,8.48-1.95,13.18-1.95,6.37,0,12.08,1.41,17.15,4.24,5.07,2.83,8.93,6.48,11.6,10.96,2.67,4.48,4,9.28,4,14.39,0,6.73-1.17,12.78-3.5,18.16-2.33,5.38-5.63,9.61-9.89,12.68-4.26,3.07-9.1,4.61-14.53,4.61-2.74,0-5.29-.64-7.67-1.92-2.38-1.28-4.01-2.79-4.91-4.54-2.02,7.94-3.23,12.67-3.63,14.19-.85,3.18-2.6,6.86-5.25,11.03,4.8,1.43,9.69,2.15,14.66,2.15,9.37,0,18.02-2.31,25.93-6.93,7.91-4.62,14.18-10.89,18.8-18.8,4.62-7.91,6.93-16.56,6.93-25.93s-2.31-18.01-6.93-25.93c-4.62-7.91-10.89-14.18-18.8-18.79Z"/>
    </g>
  </g>
</svg>