<?xml version="1.0" encoding="UTF-8"?>
<svg id="Laag_2" data-name="Laag 2" xmlns="http://www.w3.org/2000/svg" viewBox="0 0 246.36 245.65">
  <defs>
    <style>
      .cls-1 {
        fill: #7f7f7f;
      }
    </style>
  </defs>
  <g id="Laag_2-2" data-name="Laag 2">
    <g>
      <path class="cls-1" d="M122.83,245.65C55.1,245.65,0,190.55,0,122.83S55.1,0,122.83,0c28.1,0,54.54,9.23,76.47,26.7,21.28,16.95,36.51,40.76,42.89,67.05.72,2.95-1.09,5.92-4.04,6.63-2.95.72-5.91-1.09-6.63-4.04-12.2-50.26-56.9-85.37-108.69-85.37C61.15,10.98,10.98,61.15,10.98,122.83s50.17,111.85,111.85,111.85c51.97,0,96.7-35.25,108.78-85.72.71-2.95,3.67-4.77,6.62-4.06,2.95.71,4.77,3.67,4.06,6.62-6.31,26.38-21.53,50.29-42.84,67.32-21.96,17.55-48.45,26.82-76.62,26.82Z"/>
      <circle class="cls-1" cx="239.53" cy="122.83" r="6.83"/>
      <g>
        <path class="cls-1" d="M148.83,87.97c-3.72-4.27-5.96-9.83-5.96-15.91h-4.66c1.2,6.65,5.16,12.35,10.62,15.91Z"/>
        <path class="cls-1" d="M105.68,122.34c-8.08,0-14.65,6.58-14.65,14.66,0,5.64,3.2,10.54,7.87,12.99-1.74-2.4-2.78-5.35-2.78-8.56,0-8.09,6.57-14.66,14.65-14.66,1.51,0,2.97.26,4.33.68v-17.82c-1.41-.19-2.85-.31-4.33-.31-.26,0-.49.02-.75.02v13.67c-1.39-.42-2.83-.68-4.33-.68Z"/>
        <path class="cls-1" d="M162.05,95.8v13.56c-9.05,0-17.43-2.9-24.26-7.8v35.48c0,17.71-14.39,32.14-32.11,32.14-6.83,0-13.19-2.17-18.4-5.82,5.87,6.29,14.23,10.26,23.49,10.26,17.69,0,32.11-14.41,32.11-32.14v-35.48c6.83,4.9,15.22,7.8,24.26,7.8v-17.45c-1.77,0-3.46-.19-5.09-.54Z"/>
        <path class="cls-1" d="M137.79,137.03v-35.48c6.83,4.9,15.22,7.8,24.26,7.8v-13.56c-5.23-1.11-9.82-3.94-13.21-7.83-5.47-3.56-9.4-9.27-10.65-15.91h-12.77l-.02,69.95c-.28,7.83-6.74,14.12-14.63,14.12-4.9,0-9.21-2.43-11.9-6.11-4.66-2.48-7.87-7.36-7.87-12.99,0-8.09,6.57-14.66,14.65-14.66,1.51,0,2.97.26,4.33.68v-13.67c-17.34.38-31.33,14.62-31.33,32.09,0,8.44,3.27,16.13,8.62,21.88,5.21,3.65,11.57,5.82,18.4,5.82,17.69,0,32.11-14.43,32.11-32.14Z"/>
      </g>
    </g>
  </g>
</svg>