<?xml version="1.0" encoding="UTF-8"?>
<svg id="Laag_2" data-name="Laag 2" xmlns="http://www.w3.org/2000/svg" viewBox="0 0 246.36 245.65">
  <defs>
    <style>
      .cls-1 {
        fill: #7f7f7f;
      }
    </style>
  </defs>
  <g id="Laag_2-2" data-name="Laag 2">
    <g>
      <path class="cls-1" d="M122.83,245.65C55.1,245.65,0,190.55,0,122.83S55.1,0,122.83,0c28.1,0,54.54,9.23,76.47,26.7,21.28,16.95,36.51,40.76,42.89,67.05.72,2.95-1.09,5.92-4.04,6.63-2.94.72-5.92-1.09-6.63-4.04-12.2-50.26-56.9-85.37-108.7-85.37C61.15,10.98,10.98,61.15,10.98,122.83s50.17,111.85,111.85,111.85c51.97,0,96.7-35.25,108.78-85.72.71-2.95,3.68-4.76,6.62-4.06,2.95.71,4.77,3.67,4.06,6.62-6.31,26.38-21.53,50.29-42.84,67.32-21.96,17.55-48.45,26.82-76.62,26.82Z"/>
      <circle class="cls-1" cx="239.53" cy="122.83" r="6.83"/>
      <path class="cls-1" d="M164.17,102.1c-1.05-3.8-4.14-6.79-8.07-7.81-7.12-1.85-35.66-1.85-35.66-1.85,0,0-28.54,0-35.66,1.85-3.93,1.02-7.02,4.01-8.07,7.81-1.91,6.89-1.91,21.26-1.91,21.26,0,0,0,14.37,1.91,21.26,1.05,3.8,4.14,6.67,8.07,7.68,7.12,1.85,35.66,1.85,35.66,1.85,0,0,28.54,0,35.66-1.85,3.93-1.02,7.02-3.88,8.07-7.68,1.91-6.89,1.91-21.26,1.91-21.26,0,0,0-14.37-1.91-21.26ZM114.87,107.77l19.08,14.1c.96.71.95,2.14,0,2.84l-19.14,14.06c-1.17.86-2.81.02-2.81-1.43l.06-28.16c0-1.45,1.65-2.28,2.81-1.42Z"/>
    </g>
  </g>
</svg>