<?xml version="1.0" encoding="UTF-8"?>
<svg id="Laag_2" data-name="Laag 2" xmlns="http://www.w3.org/2000/svg" viewBox="0 0 1583.87 149.28">
  <defs>
    <style>
      .cls-1 {
        fill: #fff;
      }
    </style>
  </defs>
  <g id="Laag_2-2" data-name="Laag 2">
    <g>
      <path class="cls-1" d="M102.51,92.25l35.97,51.01h-32.88l-29.98-45.03h-32.36v45.03h-25.98v-44.95H.25v-25h17V.39h70.24c27.04,0,48.95,21.07,48.95,47.06,0,20.95-14.24,38.7-33.93,44.8ZM85.13,73.71c13.94,0,25.23-10.86,25.23-24.25s-11.29-24.26-25.23-24.26h-41.85v48.51h41.85Z"/>
      <rect class="cls-1" x="206.7" y=".39" width="26.08" height="142.87"/>
      <polygon class="cls-1" points="305.11 .39 414.67 .39 414.67 25.29 372.86 25.29 372.86 143.26 346.78 143.26 346.78 25.28 305.11 25.28 305.11 .39"/>
      <path class="cls-1" d="M612.29.39v82.82c0,34.91-28.3,63.21-63.22,63.21s-63.21-28.3-63.21-63.21V.39h26.36v84.24c0,20.35,16.5,36.85,36.85,36.85s36.85-16.5,36.85-36.85V.39h26.37Z"/>
      <path class="cls-1" d="M758.67.39l60.33,142.87h-28.26l-10.67-26.45h-60.75l-10.73,26.45h-27.87l52.02-119.32h-32.75V.39h58.68ZM729.2,93.37h41.31s-7.03-17.42-12.88-31.91c-4.16-10.31-7.72-19.13-7.72-19.13l-20.71,51.04Z"/>
      <polygon class="cls-1" points="889.65 .39 889.65 143.26 998.31 143.26 998.31 84.47 971.86 84.47 971.86 118.11 916.11 118.11 916.11 .39 889.65 .39"/>
      <path class="cls-1" d="M1071.73,122.84l19.63-18.04c1.58,1.77,3.69,3.94,6.36,6.22.34.29,2.88,2.44,5.67,4.32,7.74,5.21,15.71,7.34,16.94,7.65,8.67,2.25,15.6,1.74,19.63,1.42,6.62-.54,10.6-1.9,11.62-2.27,3.39-1.2,6.91-2.5,10.2-5.81,1.22-1.22,3.9-3.98,5.1-8.5.46-1.71,1.68-6.32-.64-10.91-2.01-3.98-5.59-5.75-8.01-6.94-2.05-1.01-4.02-1.47-7.87-2.34-4.17-.94-7.22-1.37-10.98-1.91,0,0-3.31-.48-12.83-1.91-8.8-1.33-13.2-1.99-16.37-2.76-6.9-1.68-13.04-3.18-19.49-7.8-2.69-1.93-7.84-5.7-11.41-12.69-3.87-7.56-3.66-14.52-3.52-17.95.4-9.65,4.24-16.44,5.24-18.14,5.02-8.46,11.99-12.42,17.57-15.59,12.49-7.09,24.15-8.12,30.9-8.65,4.77-.37,15.38-.78,27.92,2.55,5.89,1.57,10.22,3.43,12.05,4.25,9.16,4.12,14.93,8.9,16.3,10.06,2.37,2.01,4.22,3.87,5.5,5.26-6.33,5.83-12.66,11.67-18.99,17.5-1.79-1.72-4.24-3.87-7.35-6.11-2-1.44-5.64-4.03-10.84-6.38-2.37-1.07-7.07-3.15-13.61-4.18-3.55-.56-10.35-1.56-18.5.64-2.62.71-6.59,1.82-10.7,4.96-2,1.53-4.54,3.51-6.24,7.09-.62,1.31-2.93,6.19-.92,11.2.94,2.34,2.43,3.74,3.61,4.82,2.96,2.71,6.36,4.05,11.83,5.31,4.92,1.14,8.26,1.48,14.03,2.13,9.3,1.05,13.95,1.57,17.86,2.2,8.29,1.33,13.29,2.67,17.15,3.9,3.22,1.03,5,1.59,7.23,2.69,7.7,3.79,11.91,9.56,12.83,10.84,5.13,7.17,5.94,14.36,6.38,18.71.35,3.48,1.03,11.14-2.55,19.84-3.42,8.31-8.85,13.04-12.76,16.44-8.31,7.23-16.58,10.13-20.98,11.62-10.87,3.69-19.82,3.72-25.37,3.69-6.18-.03-21.05-.28-37.7-8.51-11-5.43-18.83-12.4-23.96-17.93Z"/>
      <circle class="cls-1" cx="1303.28" cy="122.48" r="22.64"/>
      <circle class="cls-1" cx="1432.25" cy="122.48" r="22.64"/>
      <circle class="cls-1" cx="1561.23" cy="122.48" r="22.64"/>
    </g>
  </g>
</svg>