<svg xmlns="http://www.w3.org/2000/svg" viewBox="0 0 40 26"><path fill="#231f20" d="M0 0h39.95v26H0z"/><path fill="#fff" d="M7.26 13.47a.36.36 0 0 1-.4.39.22.22 0 0 1-.25-.22c0-.23.25-.27.65-.45zm2.4-.5c-.39-.1-.63-.11-.63-.29 0-.11.1-.19.3-.19a.77.77 0 0 1 .66.4h.3v-.65h-.3l-.06.11a1.34 1.34 0 0 0-.68-.16c-.54 0-.87.27-.87.61 0 .33.26.5.83.63.34.08.54.12.54.27 0 .11-.12.2-.35.2a.66.66 0 0 1-.67-.46h-.35s0 .41-.3.41a.19.19 0 0 1-.2-.18v-.86a.48.48 0 0 0-.17-.44 1.2 1.2 0 0 0-.72-.18c-.62 0-.96.21-.96.52 0 .18.15.3.36.3.2 0 .34-.11.34-.25a.24.24 0 0 0-.25-.23.51.51 0 0 1 .37-.12c.25 0 .43.13.43.33 0 .28-.3.3-.72.4s-.63.24-.63.54c0 .32.26.54.67.54a.99.99 0 0 0 .72-.29.5.5 0 0 0 .5.29c.39 0 .56-.18.56-.26v.22h.3l.08-.15a1.64 1.64 0 0 0 .77.2c.53 0 .87-.28.87-.64 0-.35-.25-.5-.73-.62zm4.32-.88a.32.32 0 1 0-.35-.32.33.33 0 0 0 .35.32m.58 1.8c-.2 0-.22-.07-.22-.24v-1.4h-1v.3h.13c.2 0 .23.06.23.25v.85c0 .18-.03.24-.23.24h-.35c-.23 0-.25-.06-.25-.24v-.75c0-.47-.17-.7-.68-.7a.88.88 0 0 0-.72.37v-1.11h-.98v.3h.1c.21 0 .24.06.24.24v1.65c0 .18-.03.24-.23.24h-.11v.3h1.28v-.3h-.08c-.2 0-.22-.07-.22-.24v-.6a.47.47 0 0 1 .46-.52c.23 0 .3.13.3.37v.75c0 .17-.02.24-.22.24h-.08v.3h2.76v-.3zm.85-.67c0 .49.16.72.5.72s.49-.23.49-.7c0-.48-.15-.71-.49-.71-.33 0-.5.23-.5.69m1.7.02c0 .6-.47 1.01-1.2 1.01-.72 0-1.2-.4-1.2-1.01s.47-1.02 1.2-1.02a1.05 1.05 0 0 1 1.2 1.02m1.48.65h.08c.2 0 .22-.07.22-.24v-.75c0-.24-.06-.37-.3-.37a.47.47 0 0 0-.46.52v.6c0 .17.02.24.22.24h.08v.3h-1.3v-.3h.13c.2 0 .23-.06.23-.24v-.85c0-.19-.03-.25-.23-.25h-.13v-.3h.99v.34a.93.93 0 0 1 .75-.4c.5 0 .66.24.66.7v.76c0 .18.02.24.25.24h.1v.3h-1.3v-.3zm3.35-.41a.86.86 0 0 1-.95.77.97.97 0 0 1-1.05-1 1.03 1.03 0 0 1 1.11-1.03c.54 0 .91.28.91.6a.27.27 0 0 1-.28.29c-.17 0-.26-.09-.26-.21 0-.13.08-.2.24-.22a.6.6 0 0 0-.58-.27c-.44 0-.71.3-.71.84 0 .48.25.77.66.77a.62.62 0 0 0 .66-.54zm.14-2.51h-.1v-.2h.76v1.81a.88.88 0 0 1 .77-.38.7.7 0 0 1 .58.24.97.97 0 0 1 .13.63v.69c0 .18.05.23.29.23h.1v.2h-1.19v-.2h.14c.24 0 .29-.05.29-.23v-.74c0-.42-.1-.6-.44-.6a.62.62 0 0 0-.67.65v.69c0 .18.04.23.28.23h.15v.2h-1.2v-.2h.1c.25 0 .3-.05.3-.23V11.2c0-.19-.05-.23-.3-.23m3.56 1.45c-.36 0-.57.22-.6.64h1.19c-.01-.43-.2-.64-.59-.64zm.96 1.14a.85.85 0 0 1-.95.7 1.02 1.02 0 1 1 0-2.04.93.93 0 0 1 1.01 1.05h-1.63v.03c0 .47.23.73.65.73a.63.63 0 0 0 .66-.47zm1.27.45c-.38 0-.6-.27-.6-.77s.23-.78.6-.78c.4 0 .67.3.67.79a.68.68 0 0 1-.67.76zM31.8 14c-.24 0-.29-.05-.29-.23V12.3h-.83v.2h.17c.24 0 .29.04.29.23v.65a.62.62 0 0 1-.67.65c-.34 0-.44-.18-.44-.6V12.3h-1.5v.32a.85.85 0 0 0-.75-.38.93.93 0 0 0-.95 1 .93.93 0 0 0 .96 1.02.83.83 0 0 0 .74-.38v.75c0 .18-.05.23-.29.23h-.14v.2h1.2v-.2h-.11c-.24 0-.29-.05-.29-.23v-1.9c0-.19.05-.24.29-.24h.18c.23 0 .28.05.28.24v.65a.97.97 0 0 0 .13.63.7.7 0 0 0 .59.23.88.88 0 0 0 .77-.38v.33h.79v-.2h-.13zm1.19-1.58c-.36 0-.58.22-.6.64h1.19c-.01-.43-.2-.64-.6-.64zm.96 1.14a.85.85 0 0 1-.95.7 1.02 1.02 0 1 1 0-2.04.93.93 0 0 1 1.01 1.05h-1.64v.03c0 .47.23.73.65.73a.63.63 0 0 0 .67-.47zM5.51 10.8c-.52 0-.81.24-.81.71v.78h-.33v.32h.11c.18.01.22.07.22.24v.78c0 .18-.03.27-.24.27H4.3v.28h1.5v-.28h-.24c-.2 0-.23-.1-.23-.27v-.86c.02-.1.07-.15.22-.16h.18v-.32h-.4v-.87c0-.27.05-.4.27-.4a.4.4 0 0 1 .18.05c-.13.05-.2.12-.2.22a.26.26 0 0 0 .3.24.29.29 0 0 0 .32-.3c0-.25-.27-.44-.69-.44"/><g fill="#ea088b"><path d="M34.11 11.74a1.08 1.08 0 1 0 1.07-.97 1.03 1.03 0 0 0-1.07.97m.2 0a.87.87 0 1 1 .87.79.83.83 0 0 1-.86-.79"/><path d="M34.72 11.47V12h.15v-.21h.17v-.12h-.17v-.09h.27v-.12h-.42zm.73.43a.16.16 0 0 1 0-.32.14.14 0 0 1 .12.1l.15-.05a.29.29 0 0 0-.27-.17.28.28 0 1 0 0 .56.29.29 0 0 0 .27-.18l-.15-.04a.14.14 0 0 1-.12.1"/></g></svg>