<?xml version="1.0" encoding="UTF-8"?>
<svg width="48px" height="48px" viewBox="0 0 48 48" version="1.1" xmlns="http://www.w3.org/2000/svg" xmlns:xlink="http://www.w3.org/1999/xlink">
    <title>brand / logo / payment / _logo_ideal</title>
    <g id="brand-/-logo-/-payment-/-_logo_ideal" stroke="none" stroke-width="1" fill="none" fill-rule="evenodd">
        <g id="Group" transform="translate(0.000000, 4.000000)">
            <path d="M27.3492981,40.886407 L27.3492981,40.8888889 L0,40.8888889 L0,0 L27.3492981,0 L27.3492981,0.00248191259 C38.5460206,0.158521995 47.5639967,7.66500639 47.5639967,20.4444444 C47.5639967,33.2238826 38.5460206,40.7303669 27.3492981,40.886407 L27.3492981,40.886407 Z" id="Rectangle-31" fill="#000000" fill-rule="nonzero"></path>
            <path d="M27.1114781,38.7617213 L2.14037985,38.7617213 L2.14037985,2.12716763 L27.1114781,2.12716763 L27.1114781,2.12716763 C37.8508806,2.17986361 45.4236168,9.33379216 45.4236168,20.4444444 C45.4236168,31.5550967 37.8508806,38.7090252 27.1114781,38.7617213 L27.1114781,38.7617213 L27.1114781,38.7617213 Z" id="Rectangle-31-path" fill="#FFFFFF"></path>
            <path d="M4.99421965,23.162492 L12.1288192,23.162492 L12.1288192,35.9254978 L4.99421965,35.9254978 L4.99421965,23.162492 Z M8.56151941,21.2716763 C11.057062,21.2716763 13.0800991,19.2611271 13.0800991,16.7809891 C13.0800991,14.300851 11.057062,12.2903019 8.56151941,12.2903019 C6.06597676,12.2903019 4.04293972,14.300851 4.04293972,16.7809891 C4.04293972,19.2611271 6.06597676,21.2716763 8.56151941,21.2716763 Z" id="Rectangle-31" fill="#000000" fill-rule="nonzero"></path>
            <path d="M42.4985316,18.6718048 C41.3660058,4.96339114 27.1114781,4.96339114 27.1114781,4.96339114 L15.9339389,4.96339114 L15.9339389,35.9254978 L27.1114781,35.9254978 C27.1114781,35.9254978 42.3328624,35.9254978 42.5670469,20.7989724 L37.3377374,20.7989724 L37.3377374,12.5266538 L39.4781173,12.5266538 L39.4781173,18.6718048 L42.4985316,18.6718048 L42.4985316,18.6718048 Z M22.1172585,12.5266538 L27.1114781,12.5266538 L27.1114781,14.6538215 L24.2576383,14.6538215 L24.2576383,15.5992293 L26.8736581,15.5992293 L26.8736581,17.490045 L24.2576383,17.490045 L24.2576383,18.6718048 L27.3492981,18.6718048 L27.3492981,20.7989724 L22.1172585,20.7989724 L22.1172585,12.5266538 Z M18.9384715,16.6628131 C18.9384715,14.6538215 17.5986788,14.6538215 17.5986788,14.6538215 L15.9339389,14.6538215 L15.9339389,12.5266538 L17.3608588,12.5266538 C17.3608588,12.5266538 20.9281585,12.5266538 20.9281585,16.6628131 C20.9281585,20.7989724 17.3608588,20.7989724 17.3608588,20.7989724 L15.9339389,20.7989724 L15.9339389,18.6718048 L17.5986788,18.6718048 C17.5986788,18.6718048 18.9384715,18.6718048 18.9384715,16.6628131 Z M30.8512787,12.5266538 L33.7704377,12.5266538 L36.2792178,20.7989724 L34.1146264,20.7989724 L33.6647076,19.2267356 L30.9208363,19.2267356 L30.4582022,20.7989724 L28.2958751,20.7989724 L30.8512787,12.5266538 Z M32.3118161,14.7133711 L33.0599388,17.1522509 L31.5497588,17.1522509 L32.3118161,14.7133711 Z" id="Rectangle-32" fill="#E54279" fill-rule="nonzero"></path>
        </g>
    </g>
</svg>